<svg width="488" height="396" viewBox="0 0 488 396" fill="none" xmlns="http://www.w3.org/2000/svg">
<g clip-path="url(#clip0_165_222)">
<path d="M148.523 395.861C153.629 351.091 140.544 324.917 133.293 313.388C121.882 295.303 104.55 281.077 81.2115 261.923C58.431 243.235 56.8437 245.745 47.5771 234.959C43.5444 230.31 34.2348 218.734 16.3022 170.432C11.7546 158.065 6.4778 142.956 1.07227 125.522C2.83121 91.12 4.59016 56.7176 6.392 22.3151C6.56361 20.9669 7.72194 11.0181 10.8537 10.6927C13.4278 10.4137 16.0447 16.6434 17.1173 19.3398C23.7669 35.5647 22.2225 51.6967 21.7935 57.4149C20.8926 69.1768 21.1071 85.7272 25.9549 106.741C27.0703 115.109 29.9876 126.406 38.8681 132.31C41.7425 134.216 43.8447 134.588 46.5474 135.518C61.6915 140.492 67.1829 152.022 86.0593 170.989C90.092 175.034 94.897 179.265 104.464 187.679C125.4 206.136 141.874 218.27 144.534 220.362C159.806 232.124 177.954 264.992 191.811 355.972" stroke="#221F20" stroke-width="0.5" stroke-miterlimit="10"/>
<path d="M105.278 244.676C99.8729 234.541 93.8668 224.174 87.26 213.574C70.2712 186.285 52.3814 163.04 35.221 143.467C35.1352 143.235 32.9472 138.726 35.4355 135.006C36.508 133.426 37.9666 132.635 38.8246 132.31" stroke="#221F20" stroke-width="0.5" stroke-miterlimit="10"/>
<path d="M55.9001 223.012C45.6038 208.693 34.0205 190.05 23.8101 167.038C12.3984 141.329 6.09191 117.759 2.44531 99.0697" stroke="#221F20" stroke-width="0.5" stroke-miterlimit="10"/>
<path d="M20.9355 29.3351L24.8824 6.13667C25.1399 3.44026 27.2849 1.34822 29.6445 1.16226C32.433 0.976298 35.1787 3.48675 35.1358 6.74103C35.8651 17.6661 36.2083 29.614 35.8651 42.4917C35.479 57.4614 34.192 71.1759 32.5188 83.4957C30.3309 91.2595 28.1 98.9768 25.9121 106.694" stroke="#221F20" stroke-width="0.5" stroke-miterlimit="10"/>
<path d="M46.5053 135.471V92.9331C53.8414 82.5194 58.4318 73.3609 61.2633 66.8988C62.8506 63.2726 64.6954 58.5771 65.2102 52.301C65.6821 46.2109 64.9957 37.6102 62.25 36.9594C61.3062 36.7269 59.7188 37.3778 57.0161 41.8408C48.35 56.0202 36.1232 77.1266 32.5195 83.5422" stroke="#221F20" stroke-width="0.5" stroke-miterlimit="10"/>
<path d="M51.0958 137.238C50.9671 132.449 51.5677 125.755 55.1714 119.293C58.4748 113.342 62.5075 110.971 68.5137 105.346C72.8467 101.255 78.6812 95.0716 84.5587 86.1921C84.9019 85.8667 86.1031 84.5649 87.1756 84.8439C88.5056 85.1693 89.3636 87.8192 88.763 91.4919C88.2911 95.7225 87.862 99.9531 87.433 104.184C84.859 107.949 82.242 111.715 79.5392 115.481C76.5791 119.665 73.576 123.802 70.6587 127.8C70.4013 136.262 70.1439 144.676 69.8865 153.184" stroke="#221F20" stroke-width="0.5" stroke-miterlimit="10"/>
<path d="M339.477 395.861C334.371 351.091 347.456 324.917 354.707 313.388C366.118 295.303 383.45 281.077 406.788 261.923C429.569 243.235 431.156 245.745 440.423 234.959C444.456 230.31 453.765 218.734 471.698 170.432C476.245 158.065 481.522 142.956 486.928 125.522C485.169 91.12 483.41 56.7176 481.608 22.3151C481.436 20.9669 480.278 11.0181 477.146 10.6927C474.572 10.4137 471.955 16.6434 470.883 19.3398C464.233 35.5647 465.777 51.6967 466.207 57.4149C467.107 69.1768 466.893 85.7272 462.045 106.741C460.93 115.109 458.012 126.406 449.132 132.31C446.258 134.216 444.155 134.588 441.453 135.518C426.308 140.492 420.817 152.022 401.941 170.989C397.908 175.034 393.103 179.265 383.536 187.679C362.6 206.136 346.126 218.27 343.466 220.362C328.194 232.124 310.047 264.992 296.189 355.972" stroke="#221F20" stroke-width="0.5" stroke-miterlimit="10"/>
<path d="M382.721 244.676C388.126 234.541 394.132 224.174 400.739 213.574C417.728 186.285 435.618 163.04 452.778 143.467C452.864 143.235 455.052 138.726 452.564 135.006C451.491 133.426 450.033 132.635 449.174 132.31" stroke="#221F20" stroke-width="0.5" stroke-miterlimit="10"/>
<path d="M432.057 223.012C442.353 208.693 453.936 190.05 464.147 167.038C475.558 141.282 481.908 117.759 485.511 99.0233" stroke="#221F20" stroke-width="0.5" stroke-miterlimit="10"/>
<path d="M467.063 29.3351C465.733 21.5713 464.446 13.854 463.117 6.13667C462.859 3.44026 460.714 1.34822 458.354 1.16226C455.566 0.976298 452.82 3.48675 452.863 6.74103C452.134 17.6661 451.791 29.614 452.134 42.4917C452.52 57.4614 453.807 71.1759 455.48 83.4957C457.668 91.2595 459.899 98.9768 462.087 106.694" stroke="#221F20" stroke-width="0.5" stroke-miterlimit="10"/>
<path d="M441.452 135.471V92.9331C434.116 82.5194 429.525 73.3609 426.694 66.8988C425.106 63.2726 423.262 58.5771 422.747 52.301C422.275 46.2109 422.961 37.6102 425.707 36.9594C426.651 36.7269 428.238 37.3778 430.941 41.8408C439.607 56.0202 451.834 77.1266 455.437 83.5422" stroke="#221F20" stroke-width="0.5" stroke-miterlimit="10"/>
<path d="M436.905 137.238C437.034 132.449 436.433 125.755 432.83 119.293C429.526 113.342 425.494 110.971 419.487 105.346C415.154 101.255 409.32 95.0716 403.442 86.1921C403.099 85.8667 401.898 84.5649 400.825 84.8439C399.496 85.1693 398.637 87.8192 399.238 91.4919C399.71 95.7225 400.139 99.9531 400.568 104.184C403.142 107.949 405.759 111.715 408.462 115.481C411.422 119.665 414.425 123.802 417.342 127.8C417.6 136.262 417.857 144.676 418.115 153.184" stroke="#221F20" stroke-width="0.5" stroke-miterlimit="10"/>
</g>
<defs>
<clipPath id="clip0_165_222">
<rect width="488" height="396" fill="white"/>
</clipPath>
</defs>
</svg>
