<svg width="281" height="122" viewBox="0 0 281 122" fill="none" xmlns="http://www.w3.org/2000/svg">
<g clip-path="url(#clip0_165_304)">
<path d="M-9.91292 55.4787C-2.1709 54.5022 6.24669 53.7186 15.2723 53.2846C25.2302 52.8024 34.5125 52.8024 42.9976 53.1158C55.9686 62.736 67.8586 68.185 76.5329 71.3917C87.2204 75.3459 100.218 78.1186 126.214 83.652C141.631 86.931 139.388 86.1474 142.144 86.9551C164.411 93.453 174.018 104.556 193.163 105.496C196.865 105.677 200.162 105.448 201.432 103.64C203.756 100.361 198.514 93.1998 193.244 88.7876C185.421 82.2415 179.854 83.7243 166.167 77.9619C153.669 72.7057 143.198 65.1229 144.157 63.3267C144.873 61.9765 151.224 64.9662 163.614 65.5207C175.896 66.0632 175.95 63.4111 185.678 64.5925C193.163 65.4966 195.311 67.3411 207.539 69.1976C212.16 69.8968 214.998 70.1138 216.822 70.3308C241.561 73.1397 257.194 94.3933 275.366 90.8611C276.745 90.5959 279.744 89.981 280.231 88.3295C281.176 85.171 272.259 80.3729 260.396 74.08C249.56 68.3417 248.681 68.7757 242.466 64.7974C234.994 59.9994 234.44 58.1911 228.698 55.0929C221.267 51.0785 214.849 50.1381 209.471 49.0893C200.946 47.4257 188.907 44.2913 174.045 37.8055C172.734 35.2739 170.437 31.9466 166.343 29.8972C162.614 28.0166 158.979 27.9925 157.925 27.9684C141.996 27.6791 126.512 23.1704 110.717 21.2777C97.1107 19.6502 64.0214 15.684 45.727 8.37845C43.8218 7.61897 37.7823 5.11146 29.189 3.56837C22.7846 2.42312 17.4341 2.25434 14.1644 2.27845C3.24716 3.68893 -9.83186 4.65336 -24.5863 4.29169C-38.0977 3.9662 -50.1363 2.59189 -60.2969 0.89209C-43.5022 19.0836 -26.7076 37.2751 -9.91292 55.4666V55.4787Z" stroke="black" stroke-miterlimit="10"/>
<path d="M229.319 73.3688C234.751 80.5417 237.453 86.8708 238.926 91.4397C240.358 95.8881 240.574 98.5283 242.587 106.557C244.168 112.802 245.709 117.877 246.803 121.265C244.871 121.482 241.912 121.566 238.858 120.421C230.319 117.25 229.454 107.787 223.415 95.5868C216.794 82.2174 206.053 69.8486 202.405 71.0903C200.662 71.681 200.689 76.2982 200.716 85.5447C200.743 91.2107 201.094 95.8881 201.405 99.0466" stroke="black" stroke-miterlimit="10"/>
<path d="M201.445 103.628C199.702 105.581 197.486 108.522 195.784 112.428C194.324 115.792 193.703 118.805 193.419 121.096C191.028 121.289 189.433 120.77 188.474 120.324C183.826 118.154 181.691 111.584 183.65 104.086" stroke="black" stroke-miterlimit="10"/>
<path d="M185.664 84.2909L184.502 73.6702L174.949 64.9301" stroke="black" stroke-miterlimit="10"/>
<path d="M172.438 65.2917L173.802 80.7587" stroke="black" stroke-miterlimit="10"/>
<path d="M171.654 99.6494C169.33 106.425 167.6 107.075 166.803 107.051C164.101 106.955 162.398 98.697 161.723 94.7791" stroke="black" stroke-miterlimit="10"/>
<path d="M160.965 75.5749C159.884 73.6822 158.263 71.2952 155.885 68.848C153.696 66.5937 151.48 64.93 149.656 63.7365" stroke="black" stroke-miterlimit="10"/>
</g>
<defs>
<clipPath id="clip0_165_304">
<rect width="343" height="122" fill="white" transform="translate(-62)"/>
</clipPath>
</defs>
</svg>
