<svg width="260" height="374" viewBox="0 0 260 374" fill="none" xmlns="http://www.w3.org/2000/svg">
<g clip-path="url(#clip0_165_44)">
<path d="M12.3047 132.833L38.2805 349.122C39.5323 352.3 41.9222 357.188 46.3606 361.818C52.8759 368.613 60.1167 371.019 63.5593 371.897H187.833C191.859 370.247 198.346 366.933 204.335 360.32C207.82 356.461 210.168 352.588 211.704 349.485C220.595 277.258 229.486 205.046 238.391 132.818H12.3047V132.833Z" stroke="#231F20" stroke-miterlimit="10"/>
<path d="M12.3051 132.833C10.7403 132.5 8.36462 131.774 5.8467 130.079C3.95471 128.808 2.60328 127.385 1.67862 126.266C1.1096 123.481 0.597483 119.774 0.711288 115.416C0.825092 110.921 1.56482 107.168 2.31877 104.384C3.14385 103.491 4.16809 102.508 5.41994 101.539C6.62911 100.601 7.78138 99.8897 8.79139 99.3449H243.655C244.821 99.9502 246.443 100.964 247.965 102.674C248.748 103.552 249.331 104.414 249.786 105.171C250.469 107.698 251.152 111.194 251.18 115.401C251.209 120.394 250.27 124.465 249.43 127.204C248.435 128.157 247.14 129.217 245.518 130.185C242.773 131.819 240.198 132.515 238.391 132.833" stroke="#231F20" stroke-miterlimit="10"/>
<path d="M8.97712 313.031C9.17627 312.471 11.0825 307.477 16.1895 305.949C20.0446 304.799 24.2411 306.085 27.0862 309.263C30.4861 327.876 33.886 346.489 37.2717 365.117C37.1152 365.617 35.2801 371.14 29.9171 372.789C25.7775 374.061 21.2111 372.532 18.3091 368.87C15.1937 350.257 12.0783 331.644 8.96289 313.016L8.97712 313.031Z" stroke="#231F20" stroke-miterlimit="10"/>
<path d="M30.6836 328.996H35.8759" stroke="#231F20" stroke-miterlimit="10"/>
<path d="M34.5684 350.227H38.7507" stroke="#231F20" stroke-miterlimit="10"/>
<path d="M11.9922 330.827C8.30777 332.794 6.23084 337.092 6.88521 341.405C7.55381 345.793 10.9253 349.228 15.1076 349.743" stroke="#231F20" stroke-miterlimit="10"/>
<path d="M224.906 309.233C225.475 308.764 228.946 305.964 233.655 306.812C239.416 307.841 241.863 313.379 242.048 313.833C239.004 332.068 235.974 350.318 232.929 368.552C232.545 368.946 228.05 373.395 222.018 372.003C217.694 370.989 215.375 367.614 214.82 366.767C218.178 347.594 221.535 328.406 224.892 309.233H224.906Z" stroke="#231F20" stroke-miterlimit="10"/>
<path d="M221.42 329.132H213.98" stroke="#231F20" stroke-miterlimit="10"/>
<path d="M217.708 350.348L211.705 349.485" stroke="#231F20" stroke-miterlimit="10"/>
<path d="M239.359 329.934C243.555 331.886 245.988 336.623 245.277 341.374C244.551 346.262 240.668 350.03 235.959 350.348" stroke="#231F20" stroke-miterlimit="10"/>
<path d="M52.207 132.833L58.0537 202.957C59.8177 207.164 64 209.585 68.1396 208.889C71.9378 208.238 75.0248 205.091 75.8356 200.975C73.716 178.261 71.5822 155.547 69.4626 132.833" stroke="#231F20" stroke-miterlimit="10"/>
<path d="M84.457 132.319L87.4159 202.639C89.0092 206.922 93.0919 209.54 97.26 209.041C101.072 208.571 104.287 205.56 105.283 201.505C104.088 178.715 102.908 155.925 101.713 133.121" stroke="#231F20" stroke-miterlimit="10"/>
<path d="M116.279 131.986L117.119 202.382C118.584 206.725 122.581 209.479 126.764 209.116C130.59 208.783 133.891 205.878 135 201.853C134.502 179.033 133.99 156.213 133.492 133.393" stroke="#231F20" stroke-miterlimit="10"/>
<path d="M149.467 132.833C148.542 155.835 147.632 178.851 146.707 201.853C147.945 206.271 151.786 209.252 155.982 209.131C159.823 209.025 163.266 206.317 164.589 202.352C165.271 179.169 165.968 156.001 166.651 132.818" stroke="#231F20" stroke-miterlimit="10"/>
<path d="M181.361 132.833C179.611 155.835 177.861 178.836 176.111 201.853C177.136 206.332 180.834 209.525 185.031 209.631C188.872 209.737 192.442 207.225 193.95 203.336C195.671 179.835 197.407 156.334 199.128 132.833" stroke="#231F20" stroke-miterlimit="10"/>
<path d="M73.7307 217.273C72.3366 217.817 70.0889 218.952 68.4103 221.343C66.248 224.415 66.248 227.775 66.248 232.314C66.248 236.218 66.248 239.154 67.9124 242.393C69.6622 245.828 72.2939 247.719 73.7307 248.582H179.17C180.621 247.235 182.812 244.814 183.993 241.152C184.718 238.927 184.69 236.536 184.661 231.77C184.619 226.64 184.576 224.037 183.495 222.039C182.001 219.285 179.526 217.923 178.004 217.257H73.7307V217.273Z" stroke="#231F20" stroke-miterlimit="10"/>
<path d="M79.4638 99.3449L94.8558 83.2893C93.6751 79.7029 91.5555 74.6033 87.7004 69.3826C84.6703 65.2817 81.498 62.3611 78.9659 60.3787C77.273 61.438 75.5518 62.5729 73.802 63.7684C67.9838 67.7785 62.891 71.9702 58.4242 76.0863C57.9832 76.3889 56.8025 77.1001 55.1666 77.0547C53.7013 77.0094 52.6487 76.3889 52.2077 76.0863C45.2656 70.3208 38.3235 64.5402 31.3957 58.7747C29.5748 59.0773 26.559 59.3043 23.088 58.2602C21.1391 57.6851 19.5601 56.8529 18.3794 56.1114C11.2239 58.1694 9.84404 60.9538 9.41727 62.4973C7.82401 68.2779 15.7192 77.4331 30.1581 84.3335C33.7856 85.65 38.5085 87.8291 43.459 91.476C47.3568 94.3512 50.2019 97.2718 52.0085 99.3147" stroke="#231F20" stroke-miterlimit="10"/>
<path d="M14.8516 57.3825V61.4834L20.2715 61.0294L21.1392 65.4935C22.2062 65.1303 23.3727 64.6461 24.5818 64.0105C27.6119 62.4216 29.8453 60.4392 31.3816 58.7898" stroke="#231F20" stroke-miterlimit="10"/>
<path d="M94.8567 83.2893L78.9668 60.3787C82.196 60.1971 85.4536 59.9853 88.7397 59.7432C91.5564 59.5464 94.3446 59.3346 97.1044 59.1076" stroke="#231F20" stroke-miterlimit="10"/>
<path d="M63.0039 75.7685L80.7574 62.9664" stroke="#231F20" stroke-miterlimit="10"/>
<path d="M65.6074 81.7458L83.9157 67.5213" stroke="#231F20" stroke-miterlimit="10"/>
<path d="M69.0371 85.6197L86.9186 71.834" stroke="#231F20" stroke-miterlimit="10"/>
<path d="M73.7168 89.7207L90.0762 76.4041" stroke="#231F20" stroke-miterlimit="10"/>
<path d="M77.9707 93.2617L92.8364 80.3839" stroke="#231F20" stroke-miterlimit="10"/>
<path d="M67.5996 41.5688C68.7519 37.5738 70.0322 34.2295 71.0991 31.7024C73.8019 25.3013 75.7224 22.7742 76.3056 22.0327C78.1976 19.6266 80.1608 17.8107 81.626 16.6001C82.7783 15.9948 84.5564 15.0869 86.8041 14.1184C92.5939 11.6064 95.5954 11.1827 100.418 9.18519C102.509 8.32264 105.44 6.94558 108.726 4.82703C113.05 5.3264 119.267 5.65931 126.721 4.85729C134.374 4.025 140.534 2.26963 144.716 0.81691C148.059 2.10317 150.933 2.79927 152.867 3.17758C158.358 4.28225 161.332 3.96447 167.662 5.02375C170.962 5.58365 173.551 6.23435 175.13 6.67319C176.51 7.64167 177.904 8.70095 179.27 9.86615C186.312 15.8435 190.138 22.3353 192.315 27.6771C189.712 29.0996 186.696 30.5826 183.267 32.0201C178.545 34.0025 174.12 35.4401 170.279 36.4994C169.028 35.4401 167.79 34.3808 166.538 33.3215C166.538 40.9332 166.979 49.1804 168.103 57.927C169.696 70.3205 172.385 81.4581 175.458 91.1883C164.575 93.8062 151.431 96.3484 136.423 98.0282C121.514 99.6927 108.228 100.086 97.1176 99.9349C98.0707 89.8112 98.4121 78.5677 97.6724 66.4466C97.1176 57.2763 95.9938 48.7416 94.557 40.9181C93.6181 42.4162 92.6792 43.9294 91.7403 45.4276C87.3873 45.3519 82.0812 44.9584 76.263 43.8084C73.0053 43.1577 70.1175 42.3859 67.5996 41.5839V41.5688Z" stroke="#231F20" stroke-miterlimit="10"/>
<path d="M108.711 4.81214C110.987 10.9257 118.697 14.7391 127.119 14.0278C136.024 13.2863 143.592 7.65705 144.702 0.786888" stroke="#231F20" stroke-miterlimit="10"/>
<path d="M104.615 7.20307C108.627 14.27 118.528 18.2195 128.884 16.9333C138.799 15.6924 147.178 9.88152 149.767 2.45146" stroke="#231F20" stroke-miterlimit="10"/>
<path d="M173.879 6.32539C171.93 9.18543 169.825 12.9232 168.331 17.4175C166.169 23.9094 166.126 29.463 166.524 33.3218" stroke="#231F20" stroke-miterlimit="10"/>
<path d="M81.627 16.6004C84.0737 18.9308 86.805 22.0027 89.1523 25.8463C92.6802 31.6269 94.0316 36.9838 94.558 40.888" stroke="#231F20" stroke-miterlimit="10"/>
<path d="M68.2832 39.3596C71.5693 40.3584 75.4244 41.3571 79.8059 42.1592C84.543 43.0369 88.9102 43.5362 92.7369 43.8086" stroke="#231F20" stroke-miterlimit="10"/>
<path d="M168.701 35.1074C172.442 34.033 176.639 32.6257 181.134 30.7947C185.089 29.1755 188.56 27.4958 191.547 25.9069" stroke="#231F20" stroke-miterlimit="10"/>
<path d="M97.2891 97.9376C108.314 98.0435 121.273 97.635 135.698 96.1066C150.649 94.5328 163.865 92.1116 174.946 89.5996" stroke="#231F20" stroke-miterlimit="10"/>
<path d="M18.2227 99.9502C18.6067 98.0889 19.3607 95.471 20.9824 92.7472C23.9982 87.6929 28.1948 85.302 30.1437 84.3637" stroke="#231F20" stroke-miterlimit="10"/>
<path d="M190.452 99.3449C196.469 92.1873 202.046 87.4054 206.057 84.3486C210.979 80.5806 213.881 79.1733 217.907 74.6789C222.687 69.3523 227.381 61.6044 225.802 59.7583C224.351 58.0483 217.978 61.8466 215.133 63.5414C200.851 72.0459 198.816 79.7786 189.058 86.8606C176.326 96.1066 159.213 97.9073 156.567 93.2314C154.945 90.3562 158.729 84.9085 162.186 79.9299C169.74 69.0496 178.474 63.2993 179.37 62.694C188.916 56.3837 203.397 44.5955 226.969 21.7151C228.05 25.9825 230.539 33.4428 236.443 40.6308C244.765 50.7544 254.851 54.1895 258.962 55.3396C256.558 60.8781 253.258 67.2489 248.691 73.8315C240.113 86.1948 230.539 94.3058 223.412 99.3449" stroke="#231F20" stroke-miterlimit="10"/>
<path d="M226.996 21.7303C231.065 22.9106 237.679 25.4529 244.181 31.1881C254.11 39.9347 257.737 50.7998 258.989 55.3547" stroke="#231F20" stroke-miterlimit="10"/>
<path d="M196.398 59.1076C200.58 55.1429 205.559 50.8301 206.711 51.844C207.28 52.3434 206.711 53.9928 206.157 55.5514C204.563 60.0761 202.472 61.5591 197.749 67.5061C195.047 70.8958 193.439 73.3019 192.059 72.8479C191.035 72.4999 190.935 70.8353 189.854 70.7142C189.029 70.6234 188.602 71.5162 186.71 73.4229C183.965 76.1771 182.884 76.2679 182.5 76.2679C181.589 76.2679 180.835 75.7987 180.352 75.4204C181.447 72.8479 183.14 69.1707 185.643 65.0244C186.995 62.7848 193.339 52.2223 195.687 53.2816C196.313 53.5691 196.882 54.7797 196.426 59.1227L196.398 59.1076Z" stroke="#231F20" stroke-miterlimit="10"/>
<path d="M168.701 62.2097L179.399 62.694" stroke="#231F20" stroke-miterlimit="10"/>
<path d="M199.129 76.2679C200.21 77.1909 201.946 78.3864 204.307 79.0522C209.613 80.5201 214.051 78.0838 215.232 77.3877" stroke="#231F20" stroke-miterlimit="10"/>
<path d="M233.982 90.8102L237.169 99.3449" stroke="#231F20" stroke-miterlimit="10"/>
</g>
<defs>
<clipPath id="clip0_165_44">
<rect width="260" height="374" fill="white"/>
</clipPath>
</defs>
</svg>
