<svg width="413" height="435" viewBox="0 0 413 435" fill="none" xmlns="http://www.w3.org/2000/svg">
<g clip-path="url(#clip0_165_314)">
<path d="M78.0545 100.978C86.3531 90.5688 93.9588 82.2976 99.9313 76.1849C115.087 60.6869 122.929 55.8097 125.277 54.3869C132.886 49.794 139.842 47.09 144.792 45.4737C148.193 45.251 153.4 45.0321 159.775 45.2519C176.133 45.8305 183.346 48.7585 196.833 49.4983C202.673 49.8219 211.106 49.8027 221.381 48.0427C230.184 55.6006 243.392 65.3621 260.967 73.3884C279.014 81.6171 295.095 85.0009 306.403 86.4936C311.926 95.0643 317.247 101.17 320.943 105.059C331.439 116.079 338.47 119.303 350.879 131.389C357.357 137.695 362.111 143.322 364.958 146.849C366.629 151.705 368.156 156.842 369.5 162.252C376.407 190.145 375.53 215.076 372.645 234.195C364.864 234.822 356.086 235.064 346.476 234.584C333.235 233.933 321.434 232.061 311.446 229.829C310.225 224.886 308.99 219.949 307.769 215.006C296.824 237.913 285.968 263.344 275.885 291.276C261.608 330.827 251.514 368.103 244.307 401.725C216.578 394.333 183.978 383.534 148.541 367.496C113.318 351.544 83.4941 334.123 59.2548 318.035C75.8993 288.882 92.8077 255.535 108.585 217.999C120.525 189.593 130.321 162.344 138.387 136.777C134.156 139.988 129.928 143.191 125.696 146.403C116.224 140.08 105.094 131.425 93.9322 119.803C87.6901 113.292 82.434 106.903 78.0487 100.964L78.0545 100.978Z" stroke="#231F20" stroke-miterlimit="10"/>
<path d="M221.369 48.0479C217.623 69.6528 229.111 91.9522 248.657 101.65C269.331 111.914 294.068 105.618 306.39 86.4987" stroke="#231F20" stroke-miterlimit="10"/>
<path d="M208.916 49.4809C207.584 76.4006 223.728 102.198 248.377 112.845C271.981 123.029 298.788 117.336 315.168 98.5585" stroke="#231F20" stroke-miterlimit="10"/>
<path d="M362.674 144.1C354.279 149.998 344.274 158.287 334.556 169.692C320.464 186.217 312.408 202.876 307.761 215.025" stroke="#231F20" stroke-miterlimit="10"/>
<path d="M144.793 45.4737C146.833 55.9341 148.438 68.9952 148.084 83.8996C147.546 106.242 142.816 124.294 138.394 136.79" stroke="#231F20" stroke-miterlimit="10"/>
<path d="M82.7227 95.2449C88.5412 102.879 95.6034 111.277 104.08 119.88C113.241 129.182 122.161 136.815 130.206 142.994" stroke="#231F20" stroke-miterlimit="10"/>
<path d="M309.975 223.47C319.749 225.472 331.029 227.153 343.54 227.919C354.569 228.594 364.617 228.437 373.475 227.841" stroke="#231F20" stroke-miterlimit="10"/>
<path d="M62.498 312.327C86.6255 328.152 115.743 345.075 149.723 360.755C184.929 377.011 217.466 388.294 245.501 396.26" stroke="#231F20" stroke-miterlimit="10"/>
</g>
<defs>
<clipPath id="clip0_165_314">
<rect width="324.518" height="322.657" fill="white" transform="matrix(0.911153 0.412069 -0.361007 0.932563 116.482 0)"/>
</clipPath>
</defs>
</svg>
